<svg width="189" height="54" viewBox="0 0 189 54" fill="none" xmlns="http://www.w3.org/2000/svg">
<g clip-path="url(#clip0_16_886)">
<rect width="60" height="60" transform="translate(4.5 -3)" fill="#120F54"/>
<path d="M19.5 42V12H42V18H49.5V36H42V42H19.5ZM27 24H41.7V18H27V24ZM27 36H41.7V30H27V36Z" fill="white"/>
<path d="M84.5 39.5V14.5H94.8448V19.5H98.2931V34.5H94.8448V39.5H84.5ZM87.9483 24.5H94.7069V19.5H87.9483V24.5ZM87.9483 34.5H94.7069V29.5H87.9483V34.5Z" fill="white"/>
<path d="M105.19 39.5V14.5H115.534V19.5H108.638V24.5H115.534V29.5H108.638V34.5H115.534V39.5H105.19Z" fill="white"/>
<path d="M125.879 39.5V19.5H122.431V14.5H132.776V19.5H129.328V39.5H125.879Z" fill="white"/>
<path d="M143.121 39.5V34.5H139.672V14.5H143.121V34.5H146.569V39.5H143.121ZM153.466 34.5V14.5H156.914V34.5H153.466ZM150.017 39.5V34.5H146.569V19.5H150.017V34.5H153.466V39.5H150.017Z" fill="white"/>
<path d="M163.81 39.5V14.5H174.155V19.5H167.259V24.5H174.155V29.5H167.259V34.5H174.155V39.5H163.81Z" fill="white"/>
<path d="M181.052 39.5V14.5H184.5V39.5H181.052Z" fill="white"/>
</g>
<defs>
<clipPath id="clip0_16_886">
<rect width="189" height="54" fill="white"/>
</clipPath>
</defs>
</svg>
